<mxfile host="app.diagrams.net" modified="2023-12-28T14:49:28.906Z" agent="Mozilla/5.0 (Windows NT 10.0; Win64; x64) AppleWebKit/537.36 (KHTML, like Gecko) Chrome/117.0.0.0 Safari/537.36 Edg/117.0.2045.31" etag="hDGgi8lKZKyY7tlawcen" version="22.1.15" type="github">
  <diagram name="Page-1" id="SgpV4EJyZPkHtqcQZCJH">
    <mxGraphModel dx="786" dy="467" grid="1" gridSize="10" guides="1" tooltips="1" connect="1" arrows="1" fold="1" page="1" pageScale="1" pageWidth="827" pageHeight="1169" math="0" shadow="0">
      <root>
        <mxCell id="0" />
        <mxCell id="1" parent="0" />
        <mxCell id="jEuPB7vrNVqdJbxvYjUA-8" style="edgeStyle=orthogonalEdgeStyle;rounded=0;orthogonalLoop=1;jettySize=auto;html=1;" edge="1" parent="1" source="jEuPB7vrNVqdJbxvYjUA-2" target="jEuPB7vrNVqdJbxvYjUA-5">
          <mxGeometry relative="1" as="geometry" />
        </mxCell>
        <mxCell id="jEuPB7vrNVqdJbxvYjUA-9" style="edgeStyle=orthogonalEdgeStyle;rounded=0;orthogonalLoop=1;jettySize=auto;html=1;" edge="1" parent="1" source="jEuPB7vrNVqdJbxvYjUA-2" target="jEuPB7vrNVqdJbxvYjUA-4">
          <mxGeometry relative="1" as="geometry" />
        </mxCell>
        <mxCell id="jEuPB7vrNVqdJbxvYjUA-11" style="edgeStyle=orthogonalEdgeStyle;rounded=0;orthogonalLoop=1;jettySize=auto;html=1;entryX=0.489;entryY=0.117;entryDx=0;entryDy=0;entryPerimeter=0;" edge="1" parent="1" source="jEuPB7vrNVqdJbxvYjUA-2" target="jEuPB7vrNVqdJbxvYjUA-10">
          <mxGeometry relative="1" as="geometry">
            <Array as="points">
              <mxPoint x="414" y="280" />
              <mxPoint x="550" y="280" />
              <mxPoint x="550" y="339" />
              <mxPoint x="549" y="339" />
            </Array>
          </mxGeometry>
        </mxCell>
        <mxCell id="jEuPB7vrNVqdJbxvYjUA-2" value="PROTOCOLES" style="ellipse;shape=cloud;whiteSpace=wrap;html=1;" vertex="1" parent="1">
          <mxGeometry x="354" y="120" width="120" height="80" as="geometry" />
        </mxCell>
        <mxCell id="jEuPB7vrNVqdJbxvYjUA-3" value="OAUTH 2" style="ellipse;shape=cloud;whiteSpace=wrap;html=1;" vertex="1" parent="1">
          <mxGeometry x="250" y="330" width="120" height="80" as="geometry" />
        </mxCell>
        <mxCell id="jEuPB7vrNVqdJbxvYjUA-4" value="OPEN ID CONNEC" style="ellipse;shape=cloud;whiteSpace=wrap;html=1;" vertex="1" parent="1">
          <mxGeometry x="580" y="250" width="120" height="80" as="geometry" />
        </mxCell>
        <mxCell id="jEuPB7vrNVqdJbxvYjUA-5" value="SAML" style="ellipse;shape=cloud;whiteSpace=wrap;html=1;" vertex="1" parent="1">
          <mxGeometry x="180" y="250" width="120" height="80" as="geometry" />
        </mxCell>
        <mxCell id="jEuPB7vrNVqdJbxvYjUA-10" value="JWT" style="ellipse;shape=cloud;whiteSpace=wrap;html=1;" vertex="1" parent="1">
          <mxGeometry x="490" y="340" width="120" height="80" as="geometry" />
        </mxCell>
        <mxCell id="jEuPB7vrNVqdJbxvYjUA-12" style="edgeStyle=orthogonalEdgeStyle;rounded=0;orthogonalLoop=1;jettySize=auto;html=1;entryX=0.625;entryY=0.2;entryDx=0;entryDy=0;entryPerimeter=0;" edge="1" parent="1" source="jEuPB7vrNVqdJbxvYjUA-2" target="jEuPB7vrNVqdJbxvYjUA-3">
          <mxGeometry relative="1" as="geometry" />
        </mxCell>
      </root>
    </mxGraphModel>
  </diagram>
</mxfile>
